# xmcd
#
# Track frame offsets: 
#        150
#        14467
#        37180
#        58445
#        73880
#        87950
#        104915
#        124627
#        140607
#        155432
#
# Disc length: 2327 seconds
#
# Revision: 3
# Processed by: cddbd v1.5.2PL0 Copyright (c) Steve Scherf et al.
# Submitted via: ExactAudioCopy v0.95b4
#
DISCID=9a09150a
DTITLE=Chris LeDoux - Powder River
DYEAR=1900
DGENRE=Country
TTITLE0=Sons Of The Pioneers
TTITLE1=Johnson County War
TTITLE2=Homegrown Western Saturday Night
TTITLE3=Rainbow Rider
TTITLE4=Hard Times
TTITLE5=The Lady Is Dancing With Me
TTITLE6=Song Of The Yukon Rose
TTITLE7=Blue Bonnet Blues
TTITLE8=I've Got To Be A Rodeo Man
TTITLE9=Lone Ranger (William Tell Overture)
EXTD=
EXTT0=
EXTT1=
EXTT2=
EXTT3=
EXTT4=
EXTT5=
EXTT6=
EXTT7=
EXTT8=
EXTT9=
PLAYORDER=
